<svg width="136" height="91" viewBox="0 0 136 91" fill="none" xmlns="http://www.w3.org/2000/svg">
<path d="M8.84233 73H1.91761L21.946 18.4545H28.7642L48.7926 73H41.8679L25.5682 27.0838H25.142L8.84233 73ZM11.3991 51.6932H39.3111V57.5526H11.3991V51.6932Z" fill="white"/>
<path d="M63.4574 71.652V48.8182H65.5526V71.652H63.4574ZM63.4574 67.2841C62.5341 67.2841 61.6937 67.1184 60.9361 66.7869C60.1785 66.4496 59.5275 65.9731 58.983 65.3576C58.4384 64.7362 58.0182 63.9934 57.7223 63.1293C57.4264 62.2652 57.2784 61.3063 57.2784 60.2528C57.2784 59.1875 57.4264 58.2228 57.7223 57.3587C58.0182 56.4886 58.4384 55.7429 58.983 55.1214C59.5275 54.5 60.1785 54.0236 60.9361 53.6921C61.6937 53.3548 62.5341 53.1861 63.4574 53.1861H64.0966V67.2841H63.4574ZM63.4574 65.402H63.8125V55.0682H63.4574C62.759 55.0682 62.1523 55.2102 61.6374 55.4943C61.1225 55.7725 60.6964 56.1542 60.359 56.6396C60.0276 57.119 59.779 57.6694 59.6133 58.2908C59.4535 58.9123 59.3736 59.5663 59.3736 60.2528C59.3736 61.1643 59.5186 62.0107 59.8086 62.7919C60.0986 63.5732 60.5455 64.2035 61.1491 64.6829C61.7528 65.1623 62.5223 65.402 63.4574 65.402ZM65.5526 67.2841H64.9134V53.1861H65.5526C66.4759 53.1861 67.3163 53.3548 68.0739 53.6921C68.8314 54.0236 69.4825 54.5 70.027 55.1214C70.5715 55.7429 70.9917 56.4886 71.2876 57.3587C71.5836 58.2228 71.7315 59.1875 71.7315 60.2528C71.7315 61.3063 71.5836 62.2652 71.2876 63.1293C70.9917 63.9934 70.5715 64.7362 70.027 65.3576C69.4825 65.9731 68.8314 66.4496 68.0739 66.7869C67.3163 67.1184 66.4759 67.2841 65.5526 67.2841ZM65.5526 65.402C66.2569 65.402 66.8635 65.2659 67.3725 64.9936C67.8874 64.7154 68.3106 64.3366 68.642 63.8572C68.9794 63.3719 69.228 62.8215 69.3878 62.206C69.5535 61.5845 69.6364 60.9335 69.6364 60.2528C69.6364 59.3414 69.4914 58.4921 69.2013 57.7049C68.9113 56.9177 68.4645 56.2815 67.8608 55.7962C67.2571 55.3108 66.4877 55.0682 65.5526 55.0682H65.1974V65.402H65.5526ZM77.0294 63.9105L83.599 53.3636H86.0138V67H83.9186V56.4531L77.3845 67H74.9342V53.3636H77.0294V63.9105ZM89.8512 53.3636H91.9464V65.0469H97.0955V53.3636H99.1907V65.0469H104.34V53.3636H106.435V67H89.8512V53.3636ZM114.274 67.3196C113.41 67.3196 112.626 67.1568 111.922 66.8313C111.217 66.4999 110.658 66.0234 110.244 65.402C109.829 64.7746 109.622 64.017 109.622 63.1293C109.622 62.348 109.776 61.7147 110.084 61.2294C110.392 60.7382 110.803 60.3535 111.318 60.0753C111.833 59.7971 112.401 59.59 113.022 59.4538C113.65 59.3118 114.28 59.1993 114.913 59.1165C115.742 59.0099 116.414 58.93 116.929 58.8768C117.449 58.8176 117.828 58.7199 118.065 58.5838C118.308 58.4477 118.429 58.2109 118.429 57.8736V57.8026C118.429 56.9266 118.189 56.246 117.71 55.7607C117.236 55.2753 116.517 55.0327 115.553 55.0327C114.552 55.0327 113.768 55.2517 113.2 55.6896C112.632 56.1276 112.232 56.5952 112.001 57.0923L110.013 56.3821C110.368 55.5535 110.841 54.9084 111.433 54.4467C112.031 53.9792 112.682 53.6536 113.386 53.4702C114.097 53.2808 114.795 53.1861 115.482 53.1861C115.92 53.1861 116.423 53.2393 116.991 53.3459C117.565 53.4465 118.118 53.6566 118.651 53.9762C119.19 54.2958 119.636 54.7782 119.991 55.4233C120.347 56.0684 120.524 56.9325 120.524 58.0156V67H118.429V65.1534H118.322C118.18 65.4493 117.944 65.766 117.612 66.1033C117.281 66.4407 116.84 66.7277 116.289 66.9645C115.739 67.2012 115.067 67.3196 114.274 67.3196ZM114.594 65.4375C115.422 65.4375 116.121 65.2747 116.689 64.9492C117.263 64.6237 117.695 64.2035 117.985 63.6886C118.281 63.1737 118.429 62.6321 118.429 62.0639V60.1463C118.34 60.2528 118.145 60.3505 117.843 60.4393C117.547 60.5221 117.204 60.5961 116.813 60.6612C116.429 60.7204 116.053 60.7737 115.686 60.821C115.325 60.8625 115.032 60.898 114.807 60.9276C114.262 60.9986 113.753 61.114 113.28 61.2738C112.812 61.4277 112.433 61.6615 112.143 61.9751C111.859 62.2829 111.717 62.7031 111.717 63.2358C111.717 63.9638 111.987 64.5142 112.525 64.8871C113.07 65.254 113.759 65.4375 114.594 65.4375Z" fill="white"/>
<path d="M46.8523 44V41.6562H47.4489C47.9389 41.6562 48.3473 41.5604 48.674 41.3686C49.0007 41.1697 49.2635 40.8253 49.4624 40.3352C49.6683 39.8381 49.8246 39.1491 49.9311 38.2685C50.0447 37.3807 50.1264 36.2514 50.1761 34.8807L50.4744 27.6364H61.3835V44H58.8693V29.9801H52.8608L52.6051 35.8182C52.5483 37.1605 52.4276 38.343 52.2429 39.3658C52.0653 40.3814 51.7919 41.2337 51.4226 41.9226C51.0604 42.6115 50.5774 43.13 49.9737 43.478C49.37 43.826 48.6136 44 47.7045 44H46.8523ZM68.1697 33.5597H72.8572C74.7749 33.5597 76.2415 34.0462 77.2571 35.0192C78.2727 35.9922 78.7805 37.2244 78.7805 38.7159C78.7805 39.696 78.5533 40.5874 78.0987 41.3899C77.6442 42.1854 76.9766 42.821 76.0959 43.2969C75.2152 43.7656 74.1357 44 72.8572 44H65.9964V27.6364H68.5107V41.6562H72.8572C73.8516 41.6562 74.6683 41.3935 75.3075 40.8679C75.9467 40.3423 76.2663 39.6676 76.2663 38.8438C76.2663 37.9773 75.9467 37.2706 75.3075 36.7237C74.6683 36.1768 73.8516 35.9034 72.8572 35.9034H68.1697V33.5597ZM91.5566 40.5909L97.2669 27.6364H99.6532L92.5794 44H90.5339L83.5879 27.6364H85.9316L91.5566 40.5909ZM85.122 27.6364V44H82.6078V27.6364H85.122ZM97.9913 44V27.6364H100.506V44H97.9913ZM111.969 44.3409C110.392 44.3409 109.032 43.9929 107.888 43.2969C106.752 42.5938 105.875 41.6136 105.257 40.3565C104.646 39.0923 104.341 37.6222 104.341 35.946C104.341 34.2699 104.646 32.7926 105.257 31.5142C105.875 30.2287 106.734 29.2273 107.835 28.5099C108.943 27.7855 110.236 27.4233 111.713 27.4233C112.565 27.4233 113.407 27.5653 114.238 27.8494C115.069 28.1335 115.825 28.5952 116.507 29.2344C117.189 29.8665 117.732 30.7045 118.137 31.7486C118.542 32.7926 118.744 34.0781 118.744 35.6051V36.6705H106.131V34.4972H116.187C116.187 33.5739 116.003 32.75 115.633 32.0256C115.271 31.3011 114.753 30.7294 114.078 30.3104C113.41 29.8913 112.622 29.6818 111.713 29.6818C110.711 29.6818 109.845 29.9304 109.113 30.4276C108.389 30.9176 107.831 31.5568 107.441 32.3452C107.05 33.1335 106.855 33.9787 106.855 34.8807V36.3295C106.855 37.5653 107.068 38.6129 107.494 39.4723C107.927 40.3246 108.528 40.9744 109.295 41.4219C110.062 41.8622 110.953 42.0824 111.969 42.0824C112.629 42.0824 113.226 41.9901 113.758 41.8054C114.298 41.6136 114.763 41.3295 115.154 40.9531C115.545 40.5696 115.846 40.0937 116.059 39.5256L118.488 40.2074C118.233 41.0312 117.803 41.7557 117.199 42.3807C116.596 42.9986 115.85 43.4815 114.962 43.8295C114.074 44.1705 113.077 44.3409 111.969 44.3409ZM121.045 29.9801V27.6364H134.341V29.9801H128.971V44H126.457V29.9801H121.045Z" fill="white"/>
</svg>
